<svg style="position: absolute; width: 0; height: 0; overflow: hidden;" version="1.1" xmlns="http://www.w3.org/2000/svg" xmlns:xlink="http://www.w3.org/1999/xlink">
  <defs>
    <symbol id="icon-all" fill="currentColor" width="100%" height="100%" viewBox="0 0 32 32">
      <path fill="currentColor" d="M32 10l-16-8-16 8 16 8 16-8zM16 4.655l10.689 5.345-10.689 5.345-10.689-5.345 10.689-5.345zM28.795 14.398l3.205 1.602-16 8-16-8 3.205-1.602 12.795 6.398zM28.795 20.398l3.205 1.602-16 8-16-8 3.205-1.602 12.795 6.398z"></path>
    </symbol>
    <symbol id="icon-share" width="100%" height="100%" viewBox="0 0 32 32">
      <path fill="currentColor" d="M27 22c-1.411 0-2.685 0.586-3.594 1.526l-13.469-6.734c0.041-0.258 0.063-0.522 0.063-0.791s-0.022-0.534-0.063-0.791l13.469-6.734c0.909 0.94 2.183 1.526 3.594 1.526 2.761 0 5-2.239 5-5s-2.239-5-5-5-5 2.239-5 5c0 0.269 0.022 0.534 0.063 0.791l-13.469 6.734c-0.909-0.94-2.183-1.526-3.594-1.526-2.761 0-5 2.239-5 5s2.239 5 5 5c1.411 0 2.685-0.586 3.594-1.526l13.469 6.734c-0.041 0.258-0.063 0.522-0.063 0.791 0 2.761 2.239 5 5 5s5-2.239 5-5c0-2.761-2.239-5-5-5z"></path>
    </symbol>
    <symbol id="icon-job" width="100%" height="100%" viewBox="0 0 32 32">
      <path fill="currentColor" d="M10 6c0-3.314 2.686-6 6-6s6 2.686 6 6c0 3.314-2.686 6-6 6s-6-2.686-6-6zM24.002 14h-1.107l-6.222 12.633 2.327-11.633-3-3-3 3 2.327 11.633-6.222-12.633h-1.107c-3.998 0-3.998 2.687-3.998 6v10h24v-10c0-3.313 0-6-3.998-6z"></path>
    </symbol>
    <symbol id="icon-info" width="100%" height="100%" viewBox="0 0 1024 1024">
      <path fill="currentColor" d="M820.232618 660.826584c0-74.695213 0-298.774711 0-298.774711 0-164.994822-138.01126-298.771641-308.232107-298.771641-170.220846 0-308.234153 133.776819-308.234153 298.771641 0 0 0 224.079498 0 298.774711 0 74.691119-77.058027 149.382239-77.058027 149.382239l770.58436 0C897.291668 810.208822 820.232618 735.517703 820.232618 660.826584zM512.000512 959.595154c63.850214 0 115.587552-33.443693 115.587552-74.691119L396.411937 884.904035C396.411937 926.152485 448.148251 959.595154 512.000512 959.595154z"></path>
    </symbol>
    <symbol id="icon-about" width="100%" height="100%" viewBox="0 0 32 32">
      <path fill="currentColor" d="M14 22h4v4h-4zM22 8c1.105 0 2 0.895 2 2v6l-6 4h-4v-2l6-4v-2h-10v-4h12zM16 3c-3.472 0-6.737 1.352-9.192 3.808s-3.808 5.72-3.808 9.192c0 3.472 1.352 6.737 3.808 9.192s5.72 3.808 9.192 3.808c3.472 0 6.737-1.352 9.192-3.808s3.808-5.72 3.808-9.192c0-3.472-1.352-6.737-3.808-9.192s-5.72-3.808-9.192-3.808zM16 0v0c8.837 0 16 7.163 16 16s-7.163 16-16 16c-8.837 0-16-7.163-16-16s7.163-16 16-16z"></path>
    </symbol>
    <symbol id="icon-ask" width="100%" height="100%" viewBox="0 0 32 32">
      <path fill="currentColor" d="M15 4c-1.583 0-3.112 0.248-4.543 0.738-1.341 0.459-2.535 1.107-3.547 1.926-1.876 1.518-2.91 3.463-2.91 5.474 0 1.125 0.315 2.217 0.935 3.247 0.646 1.073 1.622 2.056 2.821 2.842 0.951 0.624 1.592 1.623 1.761 2.748 0.028 0.187 0.051 0.375 0.068 0.564 0.085-0.079 0.169-0.16 0.254-0.244 0.754-0.751 1.771-1.166 2.823-1.166 0.167 0 0.335 0.011 0.503 0.032 0.605 0.077 1.223 0.116 1.836 0.116 1.583 0 3.112-0.248 4.543-0.738 1.341-0.459 2.535-1.107 3.547-1.926 1.876-1.518 2.91-3.463 2.91-5.474s-1.033-3.956-2.91-5.474c-1.012-0.819-2.206-1.467-3.547-1.926-1.431-0.49-2.96-0.738-4.543-0.738zM15 0v0c8.284 0 15 5.435 15 12.139s-6.716 12.139-15 12.139c-0.796 0-1.576-0.051-2.339-0.147-3.222 3.209-6.943 3.785-10.661 3.869v-0.785c2.008-0.98 3.625-2.765 3.625-4.804 0-0.285-0.022-0.564-0.063-0.837-3.392-2.225-5.562-5.625-5.562-9.434 0-6.704 6.716-12.139 15-12.139zM31.125 27.209c0 1.748 1.135 3.278 2.875 4.118v0.673c-3.223-0.072-6.181-0.566-8.973-3.316-0.661 0.083-1.337 0.126-2.027 0.126-2.983 0-5.732-0.805-7.925-2.157 4.521-0.016 8.789-1.464 12.026-4.084 1.631-1.32 2.919-2.87 3.825-4.605 0.961-1.84 1.449-3.799 1.449-5.825 0-0.326-0.014-0.651-0.039-0.974 2.268 1.873 3.664 4.426 3.664 7.24 0 3.265-1.88 6.179-4.82 8.086-0.036 0.234-0.055 0.474-0.055 0.718z"></path>
    </symbol>
    <symbol id="icon-good" width="100%" height="100%" viewBox="0 0 32 32">
      <path fill="currentColor" d="M10.031 32c-2.133-4.438-0.997-6.981 0.642-9.376 1.795-2.624 2.258-5.221 2.258-5.221s1.411 1.834 0.847 4.703c2.493-2.775 2.963-7.196 2.587-8.889 5.635 3.938 8.043 12.464 4.798 18.783 17.262-9.767 4.294-24.38 2.036-26.027 0.753 1.646 0.895 4.433-0.625 5.785-2.573-9.759-8.937-11.759-8.937-11.759 0.753 5.033-2.728 10.536-6.084 14.648-0.118-2.007-0.243-3.392-1.298-5.312-0.237 3.646-3.023 6.617-3.777 10.27-1.022 4.946 0.765 8.568 7.555 12.394z"></path>
    </symbol>
  </defs>
</svg>
